<svg id="visual" viewBox="0 0 900 600" width="900" height="600" xmlns="http://www.w3.org/2000/svg" xmlns:xlink="http://www.w3.org/1999/xlink" version="1.1"><rect x="0" y="0" width="900" height="600" fill="#ffffff"></rect><path d="M0 481L21.5 486.5C43 492 86 503 128.8 505.2C171.7 507.3 214.3 500.7 257.2 501C300 501.3 343 508.7 385.8 505.2C428.7 501.7 471.3 487.3 514.2 491.2C557 495 600 517 642.8 520.2C685.7 523.3 728.3 507.7 771.2 506.3C814 505 857 518 878.5 524.5L900 531L900 601L878.5 601C857 601 814 601 771.2 601C728.3 601 685.7 601 642.8 601C600 601 557 601 514.2 601C471.3 601 428.7 601 385.8 601C343 601 300 601 257.2 601C214.3 601 171.7 601 128.8 601C86 601 43 601 21.5 601L0 601Z" fill="#b81c1c" stroke-linecap="round" stroke-linejoin="miter"></path></svg>