<svg id="visual" viewBox="0 0 900 600" width="900" height="600" xmlns="http://www.w3.org/2000/svg" xmlns:xlink="http://www.w3.org/1999/xlink" version="1.1"><rect x="0" y="0" width="900" height="600" fill="#ffffff"></rect><path d="M0 390L21.5 392.3C43 394.7 86 399.3 128.8 398.5C171.7 397.7 214.3 391.3 257.2 408.2C300 425 343 465 385.8 474C428.7 483 471.3 461 514.2 461.8C557 462.7 600 486.3 642.8 478.5C685.7 470.7 728.3 431.3 771.2 427.2C814 423 857 454 878.5 469.5L900 485L900 601L878.5 601C857 601 814 601 771.2 601C728.3 601 685.7 601 642.8 601C600 601 557 601 514.2 601C471.3 601 428.7 601 385.8 601C343 601 300 601 257.2 601C214.3 601 171.7 601 128.8 601C86 601 43 601 21.5 601L0 601Z" fill="#F5F5DC" stroke-linecap="round" stroke-linejoin="miter"></path></svg>